<svg width="20" height="20" viewBox="0 0 20 20" fill="none" xmlns="http://www.w3.org/2000/svg">
<path d="M14.0659 5.93403C14.3588 6.22692 14.3588 6.70179 14.0659 6.99469L11.0607 9.99989L14.0659 13.0051C14.3588 13.298 14.3588 13.7729 14.0659 14.0658C13.773 14.3586 13.2981 14.3586 13.0052 14.0658L10 11.0606L6.9948 14.0658C6.7019 14.3586 6.22703 14.3586 5.93414 14.0658C5.64124 13.7729 5.64124 13.298 5.93414 13.0051L8.93934 9.99989L5.93414 6.99469C5.64124 6.70179 5.64124 6.22692 5.93414 5.93403C6.22703 5.64113 6.7019 5.64113 6.9948 5.93403L10 8.93923L13.0052 5.93403C13.2981 5.64113 13.773 5.64113 14.0659 5.93403Z" fill="#A9A9BC"/>
</svg>
