<svg width="40" height="40" viewBox="0 0 40 40" fill="none" xmlns="http://www.w3.org/2000/svg">
<path d="M18.5 27.9V12.1C18.5 10.6 17.86 10 16.27 10H12.23C10.64 10 10 10.6 10 12.1V27.9C10 29.4 10.64 30 12.23 30H16.27C17.86 30 18.5 29.4 18.5 27.9Z" stroke="#686889" stroke-width="1.5" stroke-linecap="round" stroke-linejoin="round"/>
<path d="M30 18.9V12.1C30 10.6 29.36 10 27.77 10H23.73C22.14 10 21.5 10.6 21.5 12.1V18.9C21.5 20.4 22.14 21 23.73 21H27.77C29.36 21 30 20.4 30 18.9Z" stroke="#686889" stroke-width="1.5" stroke-linecap="round" stroke-linejoin="round"/>
<path d="M30 27.9V26.1C30 24.6 29.36 24 27.77 24H23.73C22.14 24 21.5 24.6 21.5 26.1V27.9C21.5 29.4 22.14 30 23.73 30H27.77C29.36 30 30 29.4 30 27.9Z" stroke="#686889" stroke-width="1.5" stroke-linecap="round" stroke-linejoin="round"/>
</svg>
