<svg width="24" height="24" viewBox="0 0 24 24" fill="none" xmlns="http://www.w3.org/2000/svg">
<path d="M11.9238 2C17.4046 2 21.8476 6.44304 21.8477 11.9238C21.8477 17.4046 17.4046 21.8477 11.9238 21.8477C6.44304 21.8476 2 17.4046 2 11.9238C2.00002 6.44306 6.44306 2.00002 11.9238 2ZM11.9238 3.5C7.27149 3.50002 3.50002 7.27149 3.5 11.9238C3.5 16.5762 7.27147 20.3476 11.9238 20.3477C16.5762 20.3477 20.3477 16.5762 20.3477 11.9238C20.3476 7.27147 16.5762 3.5 11.9238 3.5ZM11.9238 15.5938C12.4305 15.5938 12.8408 16.0041 12.8408 16.5107C12.8408 17.0174 12.4305 17.4277 11.9238 17.4277C11.4172 17.4277 11.0068 17.0174 11.0068 16.5107C11.0069 16.0041 11.4172 15.5938 11.9238 15.5938ZM11.9238 5.66992C13.858 5.66992 15.4258 7.23768 15.4258 9.17188C15.4257 10.7056 14.4404 12.0069 13.0703 12.4814C12.9343 12.5285 12.821 12.6052 12.751 12.6826C12.6855 12.7552 12.6739 12.8078 12.6738 12.8408V13.7588C12.6738 14.1729 12.338 14.5088 11.9238 14.5088C11.5097 14.5088 11.1739 14.1729 11.1738 13.7588V12.8408C11.1741 11.8843 11.9437 11.2845 12.5791 11.0645C13.3639 10.7927 13.9257 10.0469 13.9258 9.17188C13.9258 8.06611 13.0296 7.16992 11.9238 7.16992C10.8181 7.16995 9.92188 8.06613 9.92188 9.17188C9.92179 9.58596 9.58596 9.92179 9.17188 9.92188C8.75772 9.92188 8.42196 9.58601 8.42188 9.17188C8.42188 7.2377 9.98966 5.66995 11.9238 5.66992Z" fill="white"/>
</svg>
