<svg width="16" height="16" viewBox="0 0 16 16" fill="none" xmlns="http://www.w3.org/2000/svg">
<path fill-rule="evenodd" clip-rule="evenodd" d="M1.11628 8C1.11628 4.19823 4.19823 1.11628 8 1.11628C11.8018 1.11628 14.8837 4.19823 14.8837 8C14.8837 11.8018 11.8018 14.8837 8 14.8837C4.19823 14.8837 1.11628 11.8018 1.11628 8ZM8 0C3.58172 0 0 3.58172 0 8C0 12.4183 3.58172 16 8 16C12.4183 16 16 12.4183 16 8C16 3.58172 12.4183 0 8 0ZM11.2523 4.74765C9.87267 3.36806 7.63743 3.36987 6.25208 4.7464L6.25082 4.74765L4.4499 6.54857C3.23472 7.76375 3.23472 9.73203 4.4499 10.9472C4.66787 11.1652 5.02126 11.1652 5.23923 10.9472C5.4572 10.7292 5.4572 10.3758 5.23923 10.1579C4.45999 9.37864 4.45999 8.11714 5.23923 7.3379L7.03888 5.53824L7.03948 5.53765C7.9907 4.59312 9.52016 4.59491 10.4623 5.53634C11.407 6.48778 11.405 8.01768 10.4629 8.95975L8.81082 10.6118C8.44832 10.9743 7.85659 10.9743 7.49409 10.6118C7.13159 10.2493 7.13159 9.65762 7.49408 9.29512L8.54341 8.24581C8.76138 8.02785 8.76138 7.67445 8.54342 7.45648C8.32546 7.23851 7.97206 7.23851 7.75409 7.45647L6.70476 8.50578C5.90633 9.30421 5.90633 10.6027 6.70476 11.4012C7.50319 12.1996 8.80171 12.1996 9.60014 11.4012L11.2523 9.74908C12.6319 8.36949 12.63 6.13427 11.2535 4.74891L11.2523 4.74765Z" fill="#A9A9BC"/>
</svg>
