<svg width="40" height="40" viewBox="0 0 40 40" fill="none" xmlns="http://www.w3.org/2000/svg">
<path d="M22 29H19C16.7909 29 16 28.2091 16 26V14C16 11.7909 16.7909 11 19 11H27C29.2091 11 30 11.7909 30 14V22M10 15H13M20 15H26M20 19H26M20 23H23M24 27L25.7528 28.4023C26.1707 28.7366 26.7777 28.6826 27.1301 28.2799L30 25M11.5 29L12.2 28.0667C12.7193 27.3743 13 26.5321 13 25.6667V12.5C13 11.6716 12.3284 11 11.5 11C10.6716 11 10 11.6716 10 12.5V25.6667C10 26.5321 10.2807 27.3743 10.8 28.0667L11.5 29Z" stroke="#686889" stroke-width="1.5" stroke-linecap="round" stroke-linejoin="round"/>
</svg>
