<svg width="20" height="20" viewBox="0 0 20 20" fill="none" xmlns="http://www.w3.org/2000/svg">
<path d="M10.0642 15.8334C8.43583 15.8334 7.05639 15.2687 5.92583 14.1393C4.79583 13.0093 4.23083 11.6304 4.23083 10.0026C4.23083 8.37481 4.79583 6.99536 5.92583 5.86425C7.05583 4.73314 8.43528 4.16731 10.0642 4.16675C11.0547 4.16675 11.9822 4.40203 12.8467 4.87259C13.7106 5.34314 14.4069 6.00009 14.9358 6.84342V4.58342C14.9358 4.46509 14.9758 4.3662 15.0558 4.28675C15.1358 4.20731 15.235 4.16731 15.3533 4.16675C15.4717 4.1662 15.5706 4.2062 15.65 4.28675C15.7294 4.36731 15.7692 4.4662 15.7692 4.58342V7.85259C15.7692 8.04314 15.7047 8.20314 15.5758 8.33259C15.4469 8.46203 15.2869 8.52648 15.0958 8.52592H11.8267C11.7089 8.52592 11.61 8.48592 11.53 8.40592C11.45 8.32592 11.41 8.22675 11.41 8.10842C11.41 7.99009 11.45 7.8912 11.53 7.81175C11.61 7.73231 11.7089 7.69259 11.8267 7.69259H14.4933C14.06 6.86148 13.4497 6.20481 12.6625 5.72259C11.8764 5.24092 11.0103 5.00009 10.0642 5.00009C8.67528 5.00009 7.49472 5.4862 6.5225 6.45842C5.55028 7.43064 5.06417 8.6112 5.06417 10.0001C5.06417 11.389 5.55028 12.5695 6.5225 13.5418C7.49472 14.514 8.67528 15.0001 10.0642 15.0001C11.0569 15.0001 11.9656 14.7312 12.79 14.1934C13.615 13.6551 14.2267 12.9404 14.625 12.0493C14.6722 11.9404 14.7483 11.864 14.8533 11.8201C14.9589 11.7756 15.0667 11.772 15.1767 11.8093C15.2939 11.8465 15.3717 11.9229 15.41 12.0384C15.4483 12.154 15.4442 12.2662 15.3975 12.3751C14.9347 13.4223 14.2236 14.2604 13.2642 14.8893C12.3047 15.5181 11.2381 15.8329 10.0642 15.8334Z" fill="#686889"/>
</svg>
