<svg width="40" height="40" viewBox="0 0 40 40" fill="none" xmlns="http://www.w3.org/2000/svg">
<path d="M25.5498 9.25C27.3245 9.25 28.7337 9.45419 29.6396 10.3584C30.5459 11.2631 30.75 12.6705 30.75 14.4404V20.7695C30.75 20.8275 30.7475 20.8852 30.7471 20.9424C30.7485 20.9614 30.75 20.9806 30.75 21C30.75 21.0288 30.7473 21.057 30.7441 21.085C30.7194 22.711 30.4917 24.006 29.6406 24.8555C28.7356 25.7587 27.3282 25.96 25.5596 25.96H20.75V29.25H24.5C24.9142 29.25 25.25 29.5858 25.25 30C25.25 30.4142 24.9142 30.75 24.5 30.75H15.5C15.0858 30.75 14.75 30.4142 14.75 30C14.75 29.5858 15.0858 29.25 15.5 29.25H19.25V25.96H14.4404V25.959C12.6713 25.9638 11.2646 25.7638 10.3594 24.8604C9.50659 24.0092 9.27875 22.7111 9.25488 21.084C9.25181 21.0564 9.25 21.0284 9.25 21C9.25 20.9816 9.25065 20.9634 9.25195 20.9453C9.25154 20.8907 9.25 20.8356 9.25 20.7803V14.4404C9.25 12.6704 9.45378 11.263 10.3584 10.3584C11.263 9.45378 12.6704 9.25 14.4404 9.25H25.5498ZM10.7822 21.75C10.8586 22.8742 11.0785 23.459 11.4189 23.7988C11.8459 24.225 12.6577 24.4649 14.4375 24.46H25.5596C27.3408 24.46 28.1535 24.2206 28.5811 23.7939C28.9206 23.455 29.1399 22.8719 29.2168 21.75H10.7822ZM14.4404 10.75C12.6605 10.75 11.8468 10.9911 11.4189 11.4189C10.9911 11.8468 10.75 12.6605 10.75 14.4404V20.25H29.25V14.4404C29.25 12.6606 29.0086 11.8477 28.5801 11.4199C28.151 10.9916 27.3351 10.75 25.5498 10.75H14.4404Z" fill="#686889"/>
</svg>
